{"glyphs":{":":{"x_min":0,"x_max":214,"ha":214,"o":"m 54 131 l 185 131 l 185 0 l 54 0 z m 185 588 l 185 456 l 54 456 l 54 588 z"},"$":{"x_min":0,"x_max":788,"ha":788,"o":"m 747 582 l 747 528 l 616 528 l 616 582 q 616 589 609 589 l 456 589 l 456 426 l 609 426 q 666 426 706 386 q 747 345 747 288 l 747 138 q 747 81 706 40 q 666 0 609 0 l 456 0 l 456 -103 l 325 -103 l 325 0 l 172 0 q 115 0 74 40 q 34 81 34 138 l 34 192 l 165 192 l 165 138 q 165 131 172 131 l 325 131 l 325 295 l 172 295 q 115 295 74 336 q 34 376 34 433 l 34 582 q 34 639 74 680 q 115 720 172 720 l 325 720 l 325 823 l 456 823 l 456 720 l 609 720 q 666 720 706 680 q 747 639 747 582 z m 609 295 l 456 295 l 456 131 l 609 131 q 616 131 616 138 l 616 288 q 616 295 609 295 z m 325 426 l 325 589 l 172 589 q 165 589 165 582 l 165 433 q 165 426 172 426 z"},"?":{"x_min":0,"x_max":678,"ha":678,"o":"m 31 720 l 517 720 q 575 720 615 680 q 655 639 655 582 l 655 407 q 655 350 615 310 q 575 269 517 269 l 271 269 q 265 269 265 263 l 265 196 l 133 196 l 133 263 q 133 320 174 360 q 214 401 271 401 l 517 401 q 524 401 524 407 l 524 582 q 524 589 517 589 l 31 589 z m 265 0 l 133 0 l 133 131 l 265 131 z"},"<":{"x_min":0,"x_max":473,"ha":473,"o":"m 163 296 l 424 145 l 424 -7 l 5 237 l 5 355 l 424 597 l 424 446 z"},"'":{"x_min":0,"x_max":224,"ha":224,"o":"m 190 719 l 190 537 l 59 537 l 59 719 z"},"=":{"x_min":0,"x_max":638,"ha":638,"o":"m 582 267 l 582 136 l 59 136 l 59 267 z m 582 448 l 582 317 l 59 317 l 59 448 z"},"a":{"x_min":0,"x_max":694,"ha":694,"o":"m 503 580 q 560 580 600 540 q 641 499 641 442 l 641 0 l 190 0 q 133 0 92 40 q 52 81 52 138 l 52 356 l 510 356 l 510 442 q 510 449 503 449 l 52 449 l 52 580 z m 510 131 l 510 224 l 183 224 l 183 138 q 183 131 190 131 z"},"L":{"x_min":0,"x_max":779,"ha":779,"o":"m 57 0 l 57 721 l 189 721 l 189 132 l 777 132 l 777 0 z"},"3":{"x_min":0,"x_max":826,"ha":826,"o":"m 738 582 l 738 438 q 738 409 728 388 q 766 348 766 294 l 766 138 q 766 81 726 40 q 686 0 629 0 l 191 0 q 134 0 94 40 q 53 81 53 138 l 53 181 l 184 181 l 184 138 q 184 131 191 131 l 629 131 q 635 131 635 138 l 635 294 q 635 301 629 301 l 177 301 l 177 432 l 600 432 q 607 432 607 438 l 607 582 q 607 589 600 589 l 191 589 q 184 589 184 582 l 184 530 l 53 530 l 53 582 q 53 639 94 680 q 134 720 191 720 l 600 720 q 657 720 698 680 q 738 639 738 582 z"},";":{"x_min":0,"x_max":217,"ha":217,"o":"m 182 588 l 182 456 l 51 456 l 51 588 z m 51 119 l 182 119 l 182 2 q 182 -49 144 -88 q 107 -127 51 -137 z"},"J":{"x_min":0,"x_max":780,"ha":780,"o":"m 591 139 l 591 720 l 724 720 l 724 139 q 724 81 683 40 q 642 0 585 0 l 143 0 q 85 0 44 40 q 4 81 4 139 l 4 221 l 136 221 l 136 139 q 136 132 143 132 l 585 132 q 591 132 591 139 z"},"V":{"x_min":0,"x_max":1003,"ha":1003,"o":"m 511 160 l 833 720 l 986 720 l 570 0 l 451 0 l 35 720 l 188 720 z"},"\"":{"x_min":0,"x_max":372,"ha":372,"o":"m 191 719 l 191 537 l 59 537 l 59 719 z m 350 719 l 350 537 l 219 537 l 219 719 z"},"7":{"x_min":0,"x_max":660,"ha":660,"o":"m 3 720 l 464 720 q 521 720 562 680 q 602 639 602 582 l 602 0 l 471 0 l 471 582 q 471 589 464 589 l 3 589 z"},"S":{"x_min":0,"x_max":822,"ha":822,"o":"m 771 581 l 771 526 l 638 526 l 638 581 q 638 588 632 588 l 190 588 q 183 588 183 581 l 183 433 q 183 426 190 426 l 632 426 q 689 426 730 386 q 771 345 771 287 l 771 139 q 771 81 730 40 q 689 0 632 0 l 190 0 q 132 0 92 40 q 51 81 51 139 l 51 194 l 183 194 l 183 139 q 183 132 190 132 l 632 132 q 638 132 638 139 l 638 287 q 638 294 632 294 l 190 294 q 132 294 92 334 q 51 375 51 433 l 51 581 q 51 639 92 680 q 132 720 190 720 l 632 720 q 689 720 730 680 q 771 639 771 581 z"},"}":{"x_min":0,"x_max":289,"ha":289,"o":"m 112 138 l 112 318 l 169 365 l 112 411 l 112 582 q 112 589 105 589 l 51 589 l 51 720 l 105 720 q 162 720 202 680 q 243 639 243 582 l 243 453 q 250 449 264 438 q 279 427 285 424 l 285 306 l 243 281 l 243 138 q 243 81 202 40 q 162 0 105 0 l 51 0 l 51 131 l 105 131 q 112 131 112 138 z"},"Z":{"x_min":0,"x_max":821,"ha":821,"o":"m 51 588 l 51 720 l 771 720 l 771 576 l 243 132 l 771 132 l 771 0 l 51 0 l 51 144 l 579 588 z"},"x":{"x_min":0,"x_max":692,"ha":692,"o":"m 502 580 l 645 580 l 645 547 l 430 295 l 645 33 l 645 0 l 502 0 l 345 192 l 189 0 l 46 0 l 46 33 l 260 295 l 46 547 l 46 580 l 189 580 l 345 396 z"},")":{"x_min":0,"x_max":278,"ha":278,"o":"m 56 0 l 56 131 l 111 131 q 117 131 117 138 l 117 582 q 117 589 111 589 l 56 589 l 56 720 l 111 720 q 167 720 208 680 q 249 639 249 582 l 249 138 q 249 81 208 40 q 167 0 111 0 z"},"&":{"x_min":0,"x_max":938,"ha":938,"o":"m 766 195 l 887 124 l 887 -8 l 749 70 q 732 38 700 19 q 667 0 628 0 l 191 0 q 134 0 94 40 q 53 81 53 138 l 53 332 q 53 354 66 379 q 80 404 103 414 q 91 435 91 476 l 91 582 q 91 639 132 680 q 172 720 229 720 l 600 720 q 650 720 690 688 q 729 655 737 606 l 737 521 l 606 521 l 606 581 q 606 588 600 588 l 229 588 q 222 588 222 581 l 222 457 l 635 249 l 635 358 l 766 358 z m 191 131 l 608 131 l 198 338 l 191 338 q 184 338 184 332 l 184 138 q 184 131 191 131 z"},"_":{"x_min":0,"x_max":828,"ha":828,"o":"m 767 0 l 767 -131 l 54 -131 l 54 0 z"},"v":{"x_min":0,"x_max":790,"ha":790,"o":"m 629 580 l 780 580 l 460 0 l 340 0 l 21 580 l 172 580 l 400 159 z"},"O":{"x_min":0,"x_max":828,"ha":828,"o":"m 193 720 l 635 720 q 692 720 733 680 q 774 639 774 581 l 774 139 q 774 81 733 40 q 692 0 635 0 l 193 0 q 135 0 94 40 q 54 81 54 139 l 54 581 q 54 639 94 680 q 135 720 193 720 z m 193 132 l 635 132 q 641 132 641 139 l 641 581 q 641 588 635 588 l 193 588 q 186 588 186 581 l 186 139 q 186 132 193 132 z"},"(":{"x_min":0,"x_max":277,"ha":277,"o":"m 189 131 l 244 131 l 244 0 l 189 0 q 132 0 92 40 q 52 81 52 138 l 52 582 q 52 639 92 680 q 132 720 189 720 l 244 720 l 244 589 l 189 589 q 183 589 183 582 l 183 138 q 183 131 189 131 z"},"C":{"x_min":0,"x_max":822,"ha":822,"o":"m 774 588 l 195 588 q 188 588 188 581 l 188 139 q 188 132 195 132 l 774 132 l 774 0 l 195 0 q 137 0 96 40 q 56 81 56 139 l 56 581 q 56 639 96 680 q 137 720 195 720 l 774 720 z"},"W":{"x_min":0,"x_max":1179,"ha":1179,"o":"m 1000 720 l 1140 720 l 878 0 l 774 0 l 587 511 l 400 0 l 297 0 l 35 720 l 175 720 l 349 245 l 523 720 l 652 720 l 826 245 z"},"A":{"x_min":0,"x_max":836,"ha":836,"o":"m 197 720 l 638 720 q 696 720 737 680 q 778 639 778 581 l 778 0 l 645 0 l 645 242 l 190 242 l 190 0 l 58 0 l 58 581 q 58 639 98 680 q 139 720 197 720 z m 190 374 l 645 374 l 645 581 q 645 588 638 588 l 197 588 q 190 588 190 581 z"},"f":{"x_min":0,"x_max":437,"ha":437,"o":"m 191 638 q 184 638 184 632 l 184 580 l 410 580 l 410 449 l 184 449 l 184 0 l 53 0 l 53 632 q 53 689 93 730 q 133 770 191 770 l 410 770 l 410 638 z"},"Q":{"x_min":0,"x_max":884,"ha":884,"o":"m 774 132 l 860 132 l 860 0 l 193 0 q 135 0 94 40 q 54 81 54 139 l 54 581 q 54 639 94 680 q 135 720 193 720 l 634 720 q 692 720 733 680 q 774 639 774 581 z m 193 132 l 634 132 q 641 132 641 139 l 641 581 q 641 588 634 588 l 193 588 q 186 588 186 581 l 186 139 q 186 132 193 132 z"},"w":{"x_min":0,"x_max":1056,"ha":1056,"o":"m 888 580 l 1027 580 l 809 0 l 707 0 l 532 388 l 364 0 l 263 0 l 35 580 l 174 580 l 314 238 l 463 580 l 599 580 l 757 236 z"},"-":{"x_min":0,"x_max":517,"ha":517,"o":"m 468 361 l 468 230 l 59 230 l 59 361 z"},"E":{"x_min":0,"x_max":766,"ha":766,"o":"m 720 720 l 720 588 l 191 588 l 191 426 l 617 426 l 617 294 l 191 294 l 191 132 l 720 132 l 720 0 l 58 0 l 58 720 z"},"s":{"x_min":0,"x_max":686,"ha":686,"o":"m 637 442 l 637 417 l 506 417 l 506 442 q 506 449 499 449 l 186 449 q 179 449 179 442 l 179 362 q 179 356 186 356 l 499 356 q 557 356 597 316 q 637 275 637 218 l 637 138 q 637 81 597 40 q 557 0 499 0 l 186 0 q 129 0 88 40 q 48 81 48 138 l 48 163 l 179 163 l 179 138 q 179 131 186 131 l 499 131 q 506 131 506 138 l 506 218 q 506 224 499 224 l 186 224 q 129 224 88 264 q 48 305 48 362 l 48 442 q 48 499 88 540 q 129 580 186 580 l 499 580 q 557 580 597 540 q 637 499 637 442 z"},">":{"x_min":0,"x_max":475,"ha":475,"o":"m 59 -9 l 59 143 l 319 294 l 59 444 l 59 595 l 479 353 l 479 235 z"},"l":{"x_min":0,"x_max":344,"ha":344,"o":"m 52 770 l 184 770 l 184 138 q 184 131 190 131 l 307 131 l 307 0 l 190 0 q 133 0 92 40 q 52 81 52 138 z"},"8":{"x_min":0,"x_max":834,"ha":834,"o":"m 770 606 l 770 441 q 770 399 750 369 q 770 339 770 297 l 770 138 q 770 81 730 40 q 689 0 632 0 l 195 0 q 138 0 98 40 q 57 81 57 138 l 57 297 q 57 337 77 369 q 57 401 57 441 l 57 582 q 57 639 98 680 q 138 720 195 720 l 632 720 q 683 720 722 688 q 762 655 770 606 z m 639 138 l 639 297 q 639 303 632 303 l 195 303 q 188 303 188 297 l 188 138 q 188 131 195 131 l 632 131 q 639 131 639 138 z m 639 431 l 639 581 q 639 588 632 588 l 195 588 q 188 588 188 581 l 188 431 q 188 424 195 424 l 632 424 q 639 424 639 431 z"},"\\":{"x_min":0,"x_max":520,"ha":520,"o":"m 5 720 l 40 720 l 518 141 l 518 0 l 483 0 l 5 579 z"},"e":{"x_min":0,"x_max":692,"ha":692,"o":"m 502 580 q 559 580 600 540 q 640 499 640 442 l 640 224 l 182 224 l 182 138 q 182 131 189 131 l 640 131 l 640 0 l 189 0 q 132 0 92 40 q 51 81 51 138 l 51 442 q 51 499 92 540 q 132 580 189 580 z m 182 356 l 509 356 l 509 442 q 509 449 502 449 l 189 449 q 182 449 182 442 z"},"b":{"x_min":0,"x_max":667,"ha":667,"o":"m 505 580 q 562 580 602 540 q 643 499 643 442 l 643 138 q 643 81 602 40 q 562 0 505 0 l 54 0 l 54 770 l 185 770 l 185 580 z m 512 138 l 512 442 q 512 449 505 449 l 192 449 q 185 449 185 442 l 185 138 q 185 131 192 131 l 505 131 q 512 131 512 138 z"},"%":{"x_min":0,"x_max":966,"ha":966,"o":"m 808 720 l 841 720 l 841 577 l 161 0 l 128 0 l 128 143 z m 186 713 l 272 713 q 329 713 370 672 q 410 632 410 575 l 410 499 q 410 442 370 402 q 329 361 272 361 l 186 361 q 129 361 88 402 q 48 442 48 499 l 48 575 q 48 632 88 672 q 129 713 186 713 z m 167 474 l 291 474 q 297 474 297 480 l 297 594 q 297 601 291 601 l 167 601 q 160 601 160 594 l 160 480 q 160 474 167 474 z m 679 351 l 764 351 q 821 351 862 310 q 902 270 902 213 l 902 137 q 902 80 862 40 q 821 -1 764 -1 l 679 -1 q 622 -1 582 40 q 541 80 541 137 l 541 213 q 541 270 582 310 q 622 351 679 351 z m 660 111 l 783 111 q 790 111 790 118 l 790 232 q 790 239 783 239 l 660 239 q 653 239 653 232 l 653 118 q 653 111 660 111 z"},"m":{"x_min":0,"x_max":978,"ha":978,"o":"m 773 580 q 830 580 870 540 q 911 499 911 442 l 911 0 l 781 0 l 781 442 q 781 449 773 449 l 555 449 q 549 449 549 442 l 549 0 l 417 0 l 417 442 q 417 449 411 449 l 192 449 q 185 449 185 442 l 185 0 l 54 0 l 54 580 z"},"#":{"x_min":0,"x_max":797,"ha":797,"o":"m 757 566 l 757 435 l 640 435 l 594 291 l 728 291 l 728 160 l 553 160 l 505 0 l 373 0 l 422 160 l 246 160 l 198 0 l 66 0 l 115 160 l 32 160 l 32 291 l 155 291 l 201 435 l 61 435 l 61 566 l 243 566 l 293 720 l 427 720 l 375 566 l 550 566 l 601 720 l 734 720 l 682 566 z m 287 291 l 462 291 l 508 435 l 333 435 z"},",":{"x_min":0,"x_max":220,"ha":220,"o":"m 54 119 l 185 119 l 185 2 q 185 -49 148 -88 q 110 -127 54 -137 z"},"n":{"x_min":0,"x_max":696,"ha":696,"o":"m 505 580 q 562 580 602 540 q 643 499 643 442 l 643 0 l 512 0 l 512 442 q 512 449 505 449 l 192 449 q 185 449 185 442 l 185 0 l 54 0 l 54 580 z"},"h":{"x_min":0,"x_max":668,"ha":668,"o":"m 505 580 q 561 580 602 540 q 643 499 643 442 l 643 0 l 512 0 l 512 442 q 512 449 505 449 l 192 449 q 185 449 185 442 l 185 0 l 54 0 l 54 770 l 185 770 l 185 580 z"},"z":{"x_min":0,"x_max":698,"ha":698,"o":"m 54 449 l 54 580 l 643 580 l 643 437 l 247 131 l 643 131 l 643 0 l 54 0 l 54 143 l 450 449 z"},"B":{"x_min":0,"x_max":832,"ha":832,"o":"m 750 581 l 750 440 q 750 410 740 389 q 779 348 779 294 l 779 139 q 779 81 738 40 q 697 0 639 0 l 59 0 l 59 720 l 611 720 q 668 720 709 680 q 750 639 750 581 z m 611 588 l 198 588 q 191 588 191 581 l 191 440 q 191 433 198 433 l 611 433 q 617 433 617 440 l 617 581 q 617 588 611 588 z m 646 139 l 646 294 q 646 300 639 300 l 198 300 q 191 300 191 294 l 191 139 q 191 132 198 132 l 639 132 q 646 132 646 139 z"},"K":{"x_min":0,"x_max":797,"ha":797,"o":"m 606 720 l 751 720 l 751 685 l 479 360 l 751 35 l 751 0 l 606 0 l 360 294 l 190 294 l 190 0 l 57 0 l 57 720 l 190 720 l 190 426 l 360 426 z"},"R":{"x_min":0,"x_max":825,"ha":825,"o":"m 775 580 l 775 386 q 775 329 734 288 q 693 247 635 247 l 596 247 l 775 34 l 775 0 l 631 0 l 423 247 l 190 247 l 187 247 l 187 0 l 55 0 l 55 719 l 635 719 q 693 719 734 678 q 775 637 775 580 z m 194 379 l 635 379 q 642 379 642 386 l 642 580 q 642 587 635 587 l 194 587 q 187 587 187 580 l 187 386 q 187 379 194 379 z"},"T":{"x_min":0,"x_max":759,"ha":759,"o":"m 20 720 l 740 720 l 740 588 l 447 588 l 447 0 l 314 0 l 314 588 l 20 588 z"},"P":{"x_min":0,"x_max":791,"ha":791,"o":"m 56 719 l 636 719 q 694 719 735 678 q 776 637 776 580 l 776 386 q 776 329 735 288 q 694 247 636 247 l 191 246 l 188 247 l 188 0 l 56 0 z m 643 386 l 643 580 q 643 587 636 587 l 195 587 q 188 587 188 580 l 188 386 q 188 379 195 379 l 636 379 q 643 379 643 386 z"},"|":{"x_min":0,"x_max":214,"ha":214,"o":"m 54 -104 l 54 816 l 185 816 l 185 -104 z"},"t":{"x_min":0,"x_max":437,"ha":437,"o":"m 410 449 l 184 449 l 184 138 q 184 131 191 131 l 410 131 l 410 0 l 191 0 q 133 0 93 40 q 53 81 53 138 l 53 770 l 184 770 l 184 580 l 410 580 z"},"M":{"x_min":0,"x_max":928,"ha":928,"o":"m 462 408 l 723 720 l 868 720 l 868 0 l 735 0 l 735 528 l 462 203 l 188 528 l 188 0 l 56 0 l 56 720 l 200 720 z"},"g":{"x_min":0,"x_max":683,"ha":683,"o":"m 630 -92 q 630 -149 590 -190 q 550 -230 493 -230 l 138 -230 l 138 -98 l 493 -98 q 499 -98 499 -92 l 499 0 l 179 0 q 122 0 82 40 q 41 81 41 138 l 41 442 q 41 499 82 540 q 122 580 179 580 l 493 580 q 550 580 590 540 q 630 499 630 442 z m 179 131 l 493 131 q 499 131 499 138 l 499 442 q 499 449 493 449 l 179 449 q 172 449 172 442 l 172 138 q 172 131 179 131 z"},"j":{"x_min":0,"x_max":239,"ha":239,"o":"m 70 770 l 201 770 l 201 638 l 70 638 z m 201 580 l 201 -81 q 201 -138 160 -178 q 120 -219 63 -219 l -187 -219 l -187 -87 l 63 -87 q 70 -87 70 -81 l 70 580 z"},"i":{"x_min":0,"x_max":233,"ha":233,"o":"m 52 0 l 52 580 l 183 580 l 183 0 z m 52 770 l 183 770 l 183 638 l 52 638 z"},"y":{"x_min":0,"x_max":685,"ha":685,"o":"m 631 -92 q 631 -149 591 -190 q 551 -230 494 -230 l 139 -230 l 139 -98 l 494 -98 q 500 -98 500 -92 l 500 0 l 180 0 q 123 0 82 40 q 42 81 42 138 l 42 578 l 173 578 l 173 138 q 173 131 180 131 l 494 131 q 500 131 500 138 l 500 578 l 631 578 z"},"@":{"x_min":0,"x_max":831,"ha":831,"o":"m 381 529 l 447 529 q 504 529 544 489 q 584 449 584 392 l 584 310 l 639 310 l 639 582 q 639 589 632 589 l 195 589 q 188 589 188 582 l 188 138 q 188 131 195 131 l 770 131 l 770 0 l 195 0 q 138 0 98 40 q 57 81 57 138 l 57 582 q 57 639 98 680 q 138 720 195 720 l 632 720 q 689 720 730 680 q 770 639 770 582 l 770 198 l 381 198 q 324 198 284 238 q 243 278 243 336 l 243 392 q 243 449 284 489 q 324 529 381 529 z m 352 310 l 482 310 l 482 421 q 482 427 476 427 l 352 427 q 345 427 345 421 l 345 317 q 345 310 352 310 z"},".":{"x_min":0,"x_max":214,"ha":214,"o":"m 185 131 l 185 0 l 54 0 l 54 131 z"},"p":{"x_min":0,"x_max":664,"ha":664,"o":"m 505 580 q 562 580 602 540 q 643 499 643 442 l 643 138 q 643 81 602 40 q 562 0 505 0 l 185 0 l 185 -230 l 54 -230 l 54 580 z m 512 138 l 512 442 q 512 449 505 449 l 192 449 q 185 449 185 442 l 185 138 q 185 131 192 131 l 505 131 q 512 131 512 138 z"},"X":{"x_min":0,"x_max":812,"ha":812,"o":"m 621 720 l 766 720 l 766 685 l 492 360 l 766 35 l 766 0 l 621 0 l 406 255 l 191 0 l 46 0 l 46 35 l 319 360 l 46 685 l 46 720 l 191 720 l 406 465 z"},"*":{"x_min":0,"x_max":491,"ha":491,"o":"m 439 632 l 480 506 l 358 467 l 434 364 l 328 287 l 251 390 l 177 287 l 71 364 l 146 467 l 25 506 l 65 632 l 186 591 l 186 719 l 318 719 l 318 592 z"},"Y":{"x_min":0,"x_max":806,"ha":806,"o":"m 657 720 l 815 720 l 482 269 l 482 0 l 350 0 l 350 269 l 17 720 l 174 720 l 416 414 z"},"c":{"x_min":0,"x_max":695,"ha":695,"o":"m 189 131 l 640 131 l 640 0 l 189 0 q 132 0 92 40 q 51 81 51 138 l 51 442 q 51 499 92 540 q 132 580 189 580 l 638 580 l 638 449 l 189 449 q 182 449 182 442 l 182 138 q 182 131 189 131 z"},"!":{"x_min":0,"x_max":220,"ha":220,"o":"m 189 0 l 58 0 l 58 131 l 189 131 z m 58 197 l 58 720 l 189 720 l 189 197 z"},"/":{"x_min":0,"x_max":521,"ha":521,"o":"m 6 142 l 484 720 l 519 720 l 519 579 l 41 0 l 6 0 z"},"[":{"x_min":0,"x_max":275,"ha":275,"o":"m 54 0 l 54 720 l 246 720 l 246 589 l 185 589 l 185 131 l 246 131 l 246 0 z"},"6":{"x_min":0,"x_max":820,"ha":820,"o":"m 195 435 l 632 435 q 689 435 730 394 q 770 354 770 297 l 770 138 q 770 81 730 40 q 689 0 632 0 l 195 0 q 138 0 98 40 q 57 81 57 138 l 57 582 q 57 639 98 680 q 138 720 195 720 l 656 720 l 656 589 l 195 589 q 188 589 188 582 l 188 441 q 188 435 195 435 z m 639 138 l 639 297 q 639 303 632 303 l 188 303 l 188 138 q 188 131 195 131 l 632 131 q 639 131 639 138 z"},"r":{"x_min":0,"x_max":528,"ha":528,"o":"m 190 580 l 512 580 l 512 449 l 190 449 q 183 449 183 442 l 183 0 l 52 0 l 52 442 q 52 499 92 540 q 133 580 190 580 z"},"2":{"x_min":0,"x_max":830,"ha":830,"o":"m 195 720 l 632 720 q 689 720 730 680 q 770 639 770 582 l 770 422 q 770 365 730 324 q 689 284 632 284 l 195 284 q 188 284 188 278 l 188 138 q 188 131 195 131 l 770 131 l 770 0 l 57 0 l 57 278 q 57 335 98 376 q 138 416 195 416 l 632 416 q 639 416 639 422 l 639 582 q 639 589 632 589 l 195 589 q 188 589 188 582 l 188 528 l 57 528 l 57 582 q 57 639 98 680 q 138 720 195 720 z"},"{":{"x_min":0,"x_max":289,"ha":289,"o":"m 196 318 l 196 138 q 196 131 203 131 l 257 131 l 257 0 l 203 0 q 145 0 105 40 q 65 81 65 138 l 65 281 q 58 285 43 294 q 28 304 23 306 l 23 425 l 65 448 l 65 582 q 65 639 105 680 q 145 720 203 720 l 257 720 l 257 589 l 203 589 q 196 589 196 582 l 196 411 l 139 365 z"},"9":{"x_min":0,"x_max":828,"ha":828,"o":"m 628 288 l 190 288 q 133 288 92 328 q 52 369 52 426 l 52 582 q 52 639 92 680 q 133 720 190 720 l 628 720 q 685 720 725 680 q 765 639 765 582 l 765 138 q 765 81 725 40 q 685 0 628 0 l 190 0 q 139 0 100 38 q 61 75 51 131 l 628 131 q 634 131 634 138 l 634 282 q 634 288 628 288 z m 184 582 l 184 426 q 184 420 190 420 l 634 420 l 634 582 q 634 589 628 589 l 190 589 q 184 589 184 582 z"}," ":{"x_min":0,"x_max":308,"ha":308,"o":""},"I":{"x_min":0,"x_max":220,"ha":220,"o":"m 57 0 l 57 720 l 189 720 l 189 0 z"},"H":{"x_min":0,"x_max":851,"ha":851,"o":"m 661 720 l 793 720 l 793 0 l 661 0 l 661 294 l 189 294 l 189 0 l 57 0 l 57 720 l 189 720 l 189 426 l 661 426 z"},"4":{"x_min":0,"x_max":730,"ha":730,"o":"m 590 312 l 691 312 l 691 181 l 590 181 l 590 0 l 459 0 l 459 181 l 6 181 l 6 304 l 467 720 l 590 720 z m 459 514 l 210 312 l 459 312 z"},"~":{"x_min":0,"x_max":404,"ha":404,"o":"m 301 312 q 349 312 388 338 l 388 242 q 338 221 299 221 q 263 221 202 253 q 140 285 103 285 q 56 285 24 254 l 24 358 q 67 377 109 377 q 147 377 208 347 q 269 317 301 312 z"},"D":{"x_min":0,"x_max":834,"ha":834,"o":"m 58 720 l 638 720 q 696 720 737 680 q 778 639 778 581 l 778 139 q 778 81 737 40 q 696 0 638 0 l 58 0 z m 645 139 l 645 581 q 645 588 638 588 l 197 588 q 190 588 190 581 l 190 139 q 190 132 197 132 l 638 132 q 645 132 645 139 z"},"0":{"x_min":0,"x_max":834,"ha":834,"o":"m 195 720 l 632 720 q 689 720 730 678 q 770 636 770 579 l 770 142 q 770 85 730 42 q 689 0 632 0 l 195 0 q 138 0 98 42 q 57 85 57 142 l 57 579 q 57 636 98 678 q 138 720 195 720 z m 580 586 l 195 586 q 188 586 188 579 l 188 257 z m 247 135 l 632 135 q 639 135 639 142 l 639 464 z"},"F":{"x_min":0,"x_max":723,"ha":723,"o":"m 58 720 l 720 720 l 720 588 l 191 588 l 191 426 l 617 426 l 617 294 l 191 294 l 191 0 l 58 0 z"},"`":{"x_min":0,"x_max":213,"ha":213,"o":"m 165 969 l 211 786 l 78 786 l 32 969 z"},"k":{"x_min":0,"x_max":646,"ha":646,"o":"m 495 580 l 636 580 l 636 546 l 404 290 l 636 34 l 636 0 l 495 0 l 288 224 l 185 224 l 185 0 l 54 0 l 54 770 l 185 770 l 185 356 l 288 356 z"},"u":{"x_min":0,"x_max":695,"ha":695,"o":"m 511 580 l 642 580 l 642 138 q 642 81 602 40 q 561 0 504 0 l 191 0 q 133 0 93 40 q 53 81 53 138 l 53 580 l 184 580 l 184 138 q 184 131 191 131 l 504 131 q 511 131 511 138 z"},"]":{"x_min":0,"x_max":276,"ha":276,"o":"m 51 589 l 51 720 l 243 720 l 243 0 l 51 0 l 51 131 l 111 131 l 111 589 z"},"U":{"x_min":0,"x_max":828,"ha":828,"o":"m 641 139 l 641 720 l 774 720 l 774 139 q 774 81 733 40 q 692 0 635 0 l 193 0 q 135 0 94 40 q 54 81 54 139 l 54 720 l 186 720 l 186 139 q 186 132 193 132 l 635 132 q 641 132 641 139 z"},"o":{"x_min":0,"x_max":692,"ha":692,"o":"m 189 580 l 502 580 q 559 580 600 540 q 640 499 640 442 l 640 138 q 640 81 600 40 q 559 0 502 0 l 189 0 q 132 0 92 40 q 51 81 51 138 l 51 442 q 51 499 92 540 q 132 580 189 580 z m 502 449 l 189 449 q 182 449 182 442 l 182 138 q 182 131 189 131 l 502 131 q 509 131 509 138 l 509 442 q 509 449 502 449 z"},"N":{"x_min":0,"x_max":832,"ha":832,"o":"m 643 192 l 643 720 l 776 720 l 776 0 l 632 0 l 188 528 l 188 0 l 56 0 l 56 720 l 200 720 z"},"+":{"x_min":0,"x_max":433,"ha":433,"o":"m 154 499 l 285 499 l 285 361 l 426 361 l 426 230 l 285 230 l 285 90 l 154 90 l 154 230 l 17 230 l 17 361 l 154 361 z"},"G":{"x_min":0,"x_max":830,"ha":830,"o":"m 776 581 l 776 525 l 643 525 l 643 581 q 643 588 636 588 l 195 588 q 188 588 188 581 l 188 139 q 188 132 195 132 l 636 132 q 643 132 643 139 l 643 275 l 480 275 l 480 407 l 776 407 l 776 139 q 776 81 735 40 q 694 0 636 0 l 195 0 q 137 0 96 40 q 56 81 56 139 l 56 581 q 56 639 96 680 q 137 720 195 720 l 636 720 q 694 720 735 680 q 776 639 776 581 z"},"q":{"x_min":0,"x_max":664,"ha":664,"o":"m 20 442 q 20 499 60 540 q 101 580 158 580 l 610 580 l 610 -230 l 479 -230 l 479 0 l 158 0 q 101 0 60 40 q 20 81 20 138 z m 152 442 l 152 138 q 152 131 158 131 l 472 131 q 479 131 479 138 l 479 442 q 479 449 472 449 l 158 449 q 152 449 152 442 z"},"d":{"x_min":0,"x_max":667,"ha":667,"o":"m 482 770 l 613 770 l 613 0 l 161 0 q 104 0 64 40 q 23 81 23 138 l 23 442 q 23 499 64 540 q 104 580 161 580 l 482 580 z m 161 131 l 475 131 q 482 131 482 138 l 482 442 q 482 449 475 449 l 161 449 q 155 449 155 442 l 155 138 q 155 131 161 131 z"},"1":{"x_min":0,"x_max":391,"ha":391,"o":"m 1 461 l 218 720 l 363 720 l 363 0 l 232 0 l 232 529 l 174 461 z"},"5":{"x_min":0,"x_max":830,"ha":830,"o":"m 188 582 l 188 441 q 188 435 195 435 l 632 435 q 689 435 730 394 q 770 354 770 297 l 770 138 q 770 81 730 40 q 689 0 632 0 l 195 0 q 138 0 98 40 q 57 81 57 138 l 57 192 l 188 192 l 188 138 q 188 131 195 131 l 632 131 q 639 131 639 138 l 639 297 q 639 303 632 303 l 57 303 l 57 720 l 770 720 l 770 589 l 195 589 q 188 589 188 582 z"}}}
